<svg xmlns="http://www.w3.org/2000/svg" width="57" height="19" viewBox="0 0 57 19" fill="none"><path d="M24.3191 18.297H19.7417L22.6027 0.713867H27.1805L24.3191 18.297Z" fill="#607B96"></path><path d="M15.8906 0.713867L11.5261 12.807L11.0101 10.2027L11.0106 10.2037L9.46985 2.29746C9.46985 2.29746 9.28407 0.713867 7.29839 0.713867H0.0841857L0 1.01112C0 1.01112 2.20673 1.47016 4.78783 3.02177L8.76484 18.2966H13.5343L20.8172 0.713867H15.8906Z" fill="#607B96"></path><path d="M51.896 18.2966H56.0992L52.4345 0.713867H48.7543C47.0545 0.713867 46.6406 2.0242 46.6406 2.0242L39.8145 18.2966H44.5854L45.5401 15.6854H51.3593L51.896 18.2966ZM46.8589 12.077L49.2646 5.49711L50.6177 12.077H46.8589Z" fill="#607B96"></path><path d="M40.1722 4.94231L40.8249 1.16605C40.8249 1.16605 38.8092 0.399414 36.7078 0.399414C34.4362 0.399414 29.0421 1.39274 29.0421 6.2202C29.0421 10.7631 35.373 10.8195 35.373 13.2046C35.373 15.5896 29.6944 15.1635 27.8207 13.6589L27.1396 17.6064C27.1396 17.6064 29.1832 18.5997 32.307 18.5997C35.4304 18.5997 40.1435 16.9813 40.1435 12.58C40.1435 8.00839 33.7551 7.58274 33.7551 5.5956C33.7551 3.60752 38.2133 3.86291 40.1722 4.94231Z" fill="#607B96"></path><path d="M11.0106 10.2037L9.46985 2.29746C9.46985 2.29746 9.28407 0.713867 7.29839 0.713867H0.0841857L0 1.01112C0 1.01112 3.46765 1.73025 6.79421 4.42241C9.97356 6.99605 11.0106 10.2037 11.0106 10.2037Z" fill="#607B96"></path></svg>