<svg xmlns="http://www.w3.org/2000/svg" width="24" height="28" viewBox="0 0 24 28" fill="none"><path class="fill-primary-2" d="M0 22.667V4.66699C0 2.45786 1.79087 0.666992 4 0.666992H22.6667C23.4031 0.666992 24 1.26395 24 2.00033V26.0003C24 26.7367 23.4031 27.3337 22.6667 27.3337H4.66667C2.08933 27.3337 0 25.2443 0 22.667ZM21.3333 24.667V20.667H4.66667C3.56209 20.667 2.66667 21.5625 2.66667 22.667C2.66667 23.7715 3.56209 24.667 4.66667 24.667H21.3333ZM9.33333 3.33366H4C3.26363 3.33366 2.66667 3.93062 2.66667 4.66699V18.4494C3.27284 18.1614 3.95093 18.0003 4.66667 18.0003H21.3333V3.33366H18.6667V14.0003L14 11.3337L9.33333 14.0003V3.33366Z" fill="#62A92B"></path></svg>